<?xml version="1.0" encoding="utf-8"?>
<!-- Generator: Adobe Illustrator 16.0.0, SVG Export Plug-In . SVG Version: 6.00 Build 0)  -->
<!DOCTYPE svg PUBLIC "-//W3C//DTD SVG 1.1//EN" "http://www.w3.org/Graphics/SVG/1.1/DTD/svg11.dtd">
<svg version="1.1" id="Capa_1" xmlns="http://www.w3.org/2000/svg" xmlns:xlink="http://www.w3.org/1999/xlink" x="0px" y="0px"
	 width="24px" height="24px" viewBox="0 0 24 24" enable-background="new 0 0 24 24" xml:space="preserve">
<g id="abLcnV.tif">
	
		<image overflow="visible" enable-background="new    " width="950" height="966" id="Layer_0" xlink:href="CDAADA76B2C2DEDA.png"  transform="matrix(0.4984 0 0 0.4995 56.125 154)">
	</image>
</g>
<g id="vgKJye.tif">
	
		<image overflow="visible" enable-background="new    " width="948" height="966" id="Layer_0_1_" xlink:href="CDAADA76B2C2DED9.png"  transform="matrix(0.4995 0 0 0.4995 57.5 154)">
	</image>
</g>
<text transform="matrix(1 0 0 1 2.3911 21.3711)" fill="#BBBBBB" font-family="'Arial-BoldMT'" font-size="7.3418">JS</text>
<text transform="matrix(1 0 0 1 10.27 21.3711)" fill="#BBBBBB" font-family="'ArialMT'" font-size="7.3418">Lint</text>
<path id="gear-10-icon" fill="#BBBBBB" d="M16.983,9.376V8.034l-0.726-0.257c-0.274-0.099-0.498-0.311-0.61-0.582l0,0
	c-0.113-0.271-0.105-0.578,0.021-0.845l0.33-0.695l-0.949-0.949l-0.694,0.331c-0.267,0.126-0.574,0.134-0.846,0.021
	c0-0.001,0-0.001,0-0.001c-0.271-0.111-0.482-0.334-0.581-0.611l-0.257-0.725h-1.342l-0.258,0.725
	c-0.099,0.276-0.311,0.5-0.581,0.611v0.001C10.218,5.17,9.911,5.163,9.646,5.037L8.95,4.706L8.001,5.654l0.33,0.696
	c0.126,0.267,0.134,0.573,0.021,0.845c0,0,0,0,0,0.001c-0.112,0.27-0.334,0.481-0.611,0.58L7.017,8.034v1.343l0.725,0.258
	c0.277,0.098,0.5,0.31,0.612,0.581l0,0c0.111,0.272,0.104,0.579-0.022,0.845l-0.33,0.695l0.95,0.949l0.695-0.33
	c0.266-0.127,0.572-0.136,0.845-0.021l0,0c0.271,0.111,0.482,0.335,0.581,0.609l0.258,0.727h1.342l0.256-0.721
	c0.099-0.278,0.312-0.504,0.585-0.617c0.002,0,0.002,0,0.002,0c0.27-0.111,0.572-0.104,0.836,0.021l0.699,0.332l0.949-0.949
	l-0.33-0.694c-0.127-0.266-0.135-0.572-0.021-0.845l0,0c0.113-0.271,0.336-0.483,0.613-0.581L16.983,9.376z M12,10.845
	c-1.01,0-1.828-0.818-1.828-1.828c0-1.009,0.818-1.828,1.828-1.828s1.828,0.819,1.828,1.828C13.828,10.027,13.01,10.845,12,10.845z"
	/>
</svg>
