<?xml version="1.0" encoding="iso-8859-1"?>
<!-- Generator: Adobe Illustrator 17.1.0, SVG Export Plug-In . SVG Version: 6.00 Build 0)  -->
<!DOCTYPE svg PUBLIC "-//W3C//DTD SVG 1.1//EN" "http://www.w3.org/Graphics/SVG/1.1/DTD/svg11.dtd">
<svg version="1.1" id="Layer_1" xmlns="http://www.w3.org/2000/svg" xmlns:xlink="http://www.w3.org/1999/xlink" x="0px" y="0px"
	 viewBox="0 0 64 64" style="enable-background:new 0 0 64 64;" xml:space="preserve">
<g>
	<path fill="#BBBBBB" d="M55.25,50.333c-0.014,0.008-0.015,0.009-0.028,0.016c0.309-0.184,0.939-0.585,1.236-0.932
		c0.5-0.583,1.51-1.356,1.042-1.833c-0.613-0.625-2.167,0.333-3.333,0.167C53,47.583,53,45.625,49.5,45.625s-6.083-1.167-7.75-0.792
		c-1.466,0.33-2.695,1.167-4.167,0.25c-0.152-0.094-0.271-0.191-0.384-0.288l-20.701,7.062c0.495,1.341,2.042,2.871,6.168,3.809
		c7.333,1.667,8.542,0.083,12.042,0c3.5-0.083,9.388,0.903,11.208-0.083c1-0.542,1.667-2.25-0.542-2.042
		c-0.999,0.094-0.167-0.958,2.083-0.875c2.25,0.083,9.152,1.05,10.208-2.292C58.154,48.833,56,49.917,55.25,50.333z"/>
	<polygon fill="#BBBBBB" points="25.742,39.485 16.245,-1.93 14.296,-1.483 23.816,40.032 	"/>
	<polygon fill="#BBBBBB" points="36.281,42.996 35.909,40.854 32.275,39.71 28.117,40.891 27.153,41.164 26.19,41.437 24.263,41.984 23.3,42.257 
		22.337,42.531 20.033,43.185 15.374,47.721 15.779,49.99 16.43,49.768 31.255,44.711 	"/>
</g>
</svg>
